<svg width="850" height="201" viewBox="0 0 850 201" fill="none" xmlns="http://www.w3.org/2000/svg">
<path d="M186.898 47.8297C186.898 45.3086 187.376 42.9347 188.315 40.708C189.253 38.4813 190.541 36.5675 192.179 34.9665C193.817 33.3471 195.694 32.0774 197.847 31.1204C200 30.1635 202.319 29.6851 204.803 29.6851C207.196 29.6851 209.514 30.1635 211.704 31.1204C213.894 32.0774 215.826 33.3655 217.501 34.9665C219.175 36.5859 220.482 38.4998 221.439 40.708C222.377 42.9347 222.856 45.3086 222.856 47.8297C222.856 50.3508 222.377 52.7063 221.439 54.8778C220.5 57.0493 219.175 58.9631 217.501 60.6193C215.826 62.2755 213.894 63.5821 211.704 64.539C209.514 65.4959 207.214 65.9744 204.803 65.9744C202.319 65.9744 200 65.4959 197.847 64.539C195.694 63.5821 193.817 62.2755 192.179 60.6193C190.541 58.9631 189.253 57.0493 188.315 54.8778C187.376 52.7063 186.898 50.3508 186.898 47.8297Z" fill="white"/>
<path d="M221.678 181.836C221.678 184.191 221.236 186.381 220.39 188.424C219.525 190.466 218.347 192.251 216.838 193.779C215.329 195.306 213.581 196.502 211.557 197.367C209.533 198.232 207.38 198.674 205.061 198.674C202.742 198.674 200.571 198.232 198.565 197.367C196.541 196.502 194.774 195.306 193.21 193.779C191.664 192.251 190.449 190.466 189.529 188.424C188.628 186.381 188.168 184.173 188.168 181.836V94.0937C188.168 91.7382 188.628 89.5483 189.529 87.5057C190.431 85.463 191.646 83.678 193.21 82.1506C194.774 80.6232 196.577 79.4271 198.675 78.5622C200.773 77.6973 203 77.2556 205.319 77.2556C207.637 77.2556 209.79 77.6973 211.759 78.5622C213.728 79.4271 215.477 80.6232 216.967 82.1506C218.476 83.678 219.636 85.463 220.445 87.5057C221.255 89.5483 221.678 91.7566 221.678 94.0937V181.836Z" fill="white"/>
<path d="M250.79 47.8297C250.79 45.3086 251.268 42.9347 252.207 40.708C253.145 38.4813 254.434 36.5675 256.071 34.9665C257.709 33.3471 259.586 32.0774 261.739 31.1204C263.892 30.1635 266.211 29.6851 268.695 29.6851C271.088 29.6851 273.406 30.1635 275.596 31.1204C277.786 32.0774 279.718 33.3655 281.393 34.9665C283.068 36.5859 284.374 38.4998 285.331 40.708C286.27 42.9347 286.748 45.3086 286.748 47.8297C286.748 50.3508 286.27 52.7063 285.331 54.8778C284.393 57.0493 283.068 58.9631 281.393 60.6193C279.718 62.2755 277.786 63.5821 275.596 64.539C273.406 65.4959 271.106 65.9744 268.695 65.9744C266.211 65.9744 263.892 65.4959 261.739 64.539C259.586 63.5821 257.709 62.2755 256.071 60.6193C254.434 58.9631 253.145 57.0493 252.207 54.8778C251.268 52.7063 250.79 50.3508 250.79 47.8297Z" fill="white"/>
<path d="M285.57 181.836C285.57 184.191 285.129 186.381 284.282 188.424C283.417 190.466 282.24 192.251 280.731 193.779C279.222 195.306 277.473 196.502 275.449 197.367C273.425 198.232 271.272 198.674 268.953 198.674C266.634 198.674 264.463 198.232 262.457 197.367C260.433 196.502 258.666 195.306 257.102 193.779C255.556 192.251 254.342 190.466 253.422 188.424C252.52 186.381 252.06 184.173 252.06 181.836V94.0937C252.06 91.7382 252.52 89.5483 253.422 87.5057C254.323 85.463 255.538 83.678 257.102 82.1506C258.648 80.6232 260.47 79.4271 262.567 78.5622C264.665 77.6973 266.892 77.2556 269.211 77.2556C271.529 77.2556 273.682 77.6973 275.651 78.5622C277.621 79.4271 279.369 80.6232 280.859 82.1506C282.368 83.678 283.528 85.463 284.337 87.5057C285.147 89.5483 285.57 91.7566 285.57 94.0937V181.836Z" fill="white"/>
<path d="M430.617 182.37C430.617 184.725 430.176 186.897 429.329 188.902C428.464 190.908 427.305 192.675 425.851 194.184C424.397 195.711 422.667 196.889 420.698 197.717C418.729 198.545 416.576 198.95 414.258 198.95C411.939 198.95 409.749 198.545 407.688 197.717C405.627 196.889 403.805 195.711 402.223 194.184C400.622 192.657 399.389 190.89 398.487 188.902C397.585 186.897 397.125 184.725 397.125 182.37V136.658C397.125 136.401 397.125 136.125 397.125 135.812C397.125 135.499 397.162 135.223 397.254 134.965C397.088 131.487 396.334 128.193 394.99 125.102C393.665 122.01 391.88 119.305 389.654 117.005C387.427 114.704 384.796 112.901 381.796 111.594C378.796 110.288 375.521 109.644 372.006 109.644C368.307 109.644 364.94 110.325 361.885 111.668C358.83 113.011 356.217 114.87 354.027 117.226C351.837 119.581 350.144 122.341 348.948 125.507C347.752 128.69 347.145 132.15 347.145 135.886V182.37C347.145 184.725 346.703 186.897 345.856 188.902C344.991 190.908 343.832 192.675 342.378 194.184C340.925 195.711 339.195 196.889 337.226 197.717C335.257 198.545 333.104 198.95 330.785 198.95C328.466 198.95 326.276 198.545 324.215 197.717C322.154 196.889 320.351 195.711 318.805 194.184C317.259 192.657 316.008 190.89 315.069 188.902C314.131 186.897 313.652 184.725 313.652 182.37V136.658V136.014V135.886C313.652 127.531 315.161 119.691 318.161 112.386C321.16 105.08 325.283 98.6945 330.527 93.2474C335.772 87.8004 341.918 83.5126 349.022 80.3842C356.106 77.2558 363.762 75.6917 372.024 75.6917C380.287 75.6917 387.961 77.2558 395.082 80.3842C402.204 83.5126 408.424 87.8004 413.706 93.2474C418.987 98.6945 423.128 105.062 426.127 112.386C429.127 119.691 430.636 127.531 430.636 135.886V136.53V136.658V182.37H430.617Z" fill="white"/>
<path d="M1.60488 27.9928C0.482341 25.3981 -0.0513251 22.7666 0.00388173 20.0614C0.0590886 17.3747 0.574352 14.8536 1.53127 12.5165C2.48819 10.1794 3.92357 8.06315 5.819 6.14931C7.69603 4.23547 9.97792 2.76329 12.6278 1.71436C15.0937 0.683835 17.5965 0.186973 20.1544 0.24218C22.7123 0.297387 25.1414 0.812651 27.4417 1.78797C29.742 2.78169 31.803 4.18027 33.6432 5.98369C35.4835 7.78711 36.9557 9.99539 38.0966 12.5901C38.0966 12.5901 82.5933 118.072 83.495 120.133C84.82 123.133 89.5862 122.967 90.8191 120.115C91.7392 117.98 135.905 12.5901 135.905 12.5901C136.917 10.1058 138.389 7.93433 140.266 6.0573C142.161 4.19867 144.259 2.76329 146.56 1.78797C148.842 0.812651 151.271 0.297387 153.829 0.24218C156.386 0.186973 158.944 0.683835 161.502 1.71436C164.06 2.74489 166.25 4.19867 168.09 6.0757C169.931 7.95273 171.329 10.069 172.304 12.4429C173.28 14.8352 173.777 17.3563 173.832 20.0614C173.887 22.7482 173.353 25.3981 172.231 27.9928L105.394 186.657C103.756 190.595 101.308 193.632 98.0328 195.748C94.7572 197.864 91.1872 198.987 87.3043 199.097H85.7769L83.7895 198.784C80.5138 198.269 77.5327 196.981 74.8275 194.901C72.1224 192.84 70.043 190.08 68.626 186.657L1.60488 27.9928Z" fill="white"/>
<path d="M588.123 137.965C588.123 129.353 589.742 121.274 593.018 113.747C596.275 106.221 600.71 99.6329 606.286 93.965C611.862 88.2971 618.376 83.8437 625.792 80.5865C633.227 77.3293 641.14 75.6915 649.568 75.6915C658.07 75.6915 666.038 77.3293 673.454 80.5865C680.889 83.8437 687.366 88.3155 692.906 93.965C698.445 99.6329 702.824 106.221 706.045 113.747C709.265 121.274 710.885 129.353 710.885 137.965C710.885 146.503 709.265 154.545 706.045 162.127C702.824 169.709 698.445 176.315 692.906 181.965C687.366 187.633 680.889 192.086 673.454 195.343C666.02 198.6 658.07 200.238 649.568 200.238C641.158 200.238 633.227 198.6 625.792 195.343C618.358 192.086 611.862 187.614 606.286 181.965C600.71 176.315 596.275 169.69 593.018 162.127C589.742 154.545 588.123 146.503 588.123 137.965ZM621.615 137.965C621.615 141.885 622.37 145.565 623.879 149.006C625.388 152.447 627.393 155.447 629.933 158.023C632.454 160.6 635.435 162.624 638.821 164.096C642.207 165.587 645.796 166.323 649.568 166.323C653.433 166.323 657.058 165.587 660.462 164.096C663.848 162.624 666.793 160.6 669.295 158.023C671.78 155.447 673.749 152.447 675.221 149.006C676.675 145.565 677.411 141.885 677.411 137.965C677.411 134.045 676.675 130.365 675.221 126.923C673.767 123.482 671.798 120.483 669.295 117.906C666.793 115.348 663.867 113.324 660.462 111.834C657.058 110.361 653.451 109.607 649.568 109.607C645.796 109.607 642.207 110.343 638.821 111.834C635.417 113.306 632.454 115.348 629.933 117.906C627.393 120.483 625.388 123.482 623.879 126.923C622.351 130.365 621.615 134.045 621.615 137.965Z" fill="#7F4282"/>
<path d="M726.581 137.965C726.581 129.353 728.219 121.274 731.476 113.747C734.733 106.221 739.168 99.6329 744.744 93.965C750.32 88.2971 756.835 83.8437 764.269 80.5865C771.685 77.3293 779.617 75.6915 788.026 75.6915C796.528 75.6915 804.497 77.3293 811.931 80.5865C819.366 83.8437 825.843 88.3155 831.382 93.965C836.921 99.6329 841.301 106.221 844.521 113.747C847.742 121.274 849.343 129.353 849.343 137.965C849.343 146.503 847.742 154.545 844.521 162.127C841.301 169.709 836.921 176.315 831.382 181.965C825.843 187.633 819.366 192.086 811.931 195.343C804.497 198.6 796.528 200.238 788.026 200.238C779.617 200.238 771.685 198.6 764.269 195.343C756.835 192.086 750.339 187.614 744.744 181.965C739.168 176.315 734.733 169.69 731.476 162.127C728.219 154.545 726.581 146.503 726.581 137.965ZM760.092 137.965C760.092 141.885 760.846 145.565 762.337 149.006C763.846 152.447 765.852 155.447 768.391 158.023C770.931 160.6 773.894 162.624 777.28 164.096C780.666 165.587 784.254 166.323 788.026 166.323C791.891 166.323 795.516 165.587 798.921 164.096C802.307 162.624 805.251 160.6 807.754 158.023C810.238 155.447 812.225 152.447 813.679 149.006C815.133 145.565 815.869 141.885 815.869 137.965C815.869 134.045 815.133 130.365 813.679 126.923C812.225 123.482 810.238 120.483 807.754 117.906C805.269 115.348 802.325 113.324 798.921 111.834C795.535 110.361 791.909 109.607 788.026 109.607C784.254 109.607 780.666 110.343 777.28 111.834C773.894 113.306 770.931 115.348 768.391 117.906C765.87 120.483 763.846 123.482 762.337 126.923C760.828 130.365 760.092 134.045 760.092 137.965Z" fill="#7F4282"/>
<path d="M573.327 24.4604V18.0196C573.327 15.5721 572.923 13.2903 572.058 11.1188C571.174 8.94732 569.997 7.07029 568.451 5.48769C566.905 3.9235 565.102 2.69054 563.041 1.77043C560.98 0.850316 558.79 0.390259 556.453 0.390259C554.06 0.390259 551.852 0.850316 549.828 1.77043C547.822 2.69054 546.055 3.9235 544.546 5.48769C543.056 7.05188 541.896 8.94732 541.087 11.1188C540.259 13.2903 539.854 15.5905 539.854 18.0196V24.4604V41.3169V47.997V64.5958V82.5932C535.566 80.4218 531.113 78.7288 526.457 77.4958C521.838 76.2812 516.98 75.6556 511.901 75.6556C503.417 75.6556 495.431 77.2934 488.015 80.5506C480.58 83.8078 474.102 88.2795 468.563 93.9474C463.043 99.5969 458.663 106.185 455.424 113.73C452.185 121.275 450.603 129.335 450.603 137.947C450.603 146.486 452.204 154.528 455.424 162.109C458.644 169.673 463.043 176.279 468.563 181.947C474.121 187.597 480.58 192.068 488.015 195.326C495.449 198.583 503.417 200.221 511.901 200.221C520.237 200.221 528.113 198.601 535.492 195.399C542.872 192.16 549.349 187.762 554.944 182.223C560.52 176.647 564.936 170.133 568.212 162.698C571.469 155.264 573.199 147.314 573.364 138.867V64.5958V47.997V24.442H573.327V24.4604ZM537.59 149.007C536.1 152.467 534.075 155.448 531.554 158.006C528.996 160.582 526.052 162.625 522.648 164.097C519.262 165.569 515.673 166.324 511.882 166.324C508.018 166.324 504.393 165.569 500.988 164.097C497.602 162.625 494.658 160.6 492.155 158.006C489.671 155.448 487.683 152.448 486.248 149.007C484.776 145.584 484.058 141.885 484.058 137.966C484.058 134.046 484.776 130.384 486.248 126.924C487.702 123.501 489.689 120.484 492.155 117.926C494.658 115.368 497.602 113.343 500.988 111.834C504.393 110.362 507.999 109.645 511.882 109.645C515.673 109.645 519.262 110.362 522.648 111.834C526.052 113.325 528.996 115.368 531.554 117.926C534.075 120.484 536.1 123.501 537.59 126.924C539.081 130.384 539.835 134.046 539.835 137.966C539.835 141.885 539.081 145.566 537.59 149.007Z" fill="#7F4282"/>
</svg>
